C:\My Captures\DataSMARTClinic\0004~001 ID\0004~aa~STRATO_01\W2_STRATO_ID_01.mot
version=1
nRows=56
nColumns=19
inDegrees=yes

BTS OpenSim export

endheader
time	r.gr_force_vx	r.gr_force_vy	r.gr_force_vz	r.gr_force_px	r.gr_force_py	r.gr_force_pz	l.gr_force_vx	l.gr_force_vy	l.gr_force_vz	l.gr_force_px	l.gr_force_py	l.gr_force_pz	r.gr_torque_x	r.gr_torque_y	r.gr_torque_z	l.gr_torque_x	l.gr_torque_y	l.gr_torque_z
4.216000	-36.75312805	17.28232384	0.60185838	-0.01666313	-0.00221699	0.02023918	0.00000000	0.00000000	0.00000000	0.00000000	0.00000000	0.00000000	0.00023148	-0.04670230	-0.00001418	0.00000000	0.00000000	0.00000000
4.220000	-36.74831772	16.99456406	1.13972414	-0.00924087	-0.00218181	0.02555449	0.00000000	0.00000000	0.00000000	0.00000000	0.00000000	0.00000000	0.00075581	-0.15249002	-0.00004631	0.00000000	0.00000000	0.00000000
4.224000	-35.13642120	16.73698807	0.59153539	-0.01604408	-0.00221367	0.01942040	0.00000000	0.00000000	0.00000000	0.00000000	0.00000000	0.00000000	0.00070598	-0.14243673	-0.00004326	0.00000000	0.00000000	0.00000000
4.228000	-35.13298416	16.72589302	1.12948525	-0.00773525	-0.00217425	0.02522510	0.00000000	0.00000000	0.00000000	0.00000000	0.00000000	0.00000000	-0.00022625	0.04564759	0.00001386	0.00000000	0.00000000	0.00000000
4.232000	-34.05571747	16.45456314	1.12263179	-0.00690782	-0.00217005	0.02488931	0.00000000	0.00000000	0.00000000	0.00000000	0.00000000	0.00000000	-0.00028021	0.05653435	0.00001717	0.00000000	0.00000000	0.00000000
4.236000	-32.98440552	16.72576523	0.57798916	0.00344181	-0.00212018	0.02958578	0.00000000	0.00000000	0.00000000	0.00000000	0.00000000	0.00000000	-0.00215591	0.43496838	0.00013209	0.00000000	0.00000000	0.00000000
4.240000	-32.43969345	15.38839149	0.57419670	-0.01614481	-0.00221355	0.01736268	0.00000000	0.00000000	0.00000000	0.00000000	0.00000000	0.00000000	0.00035226	-0.07106997	-0.00002158	0.00000000	0.00000000	0.00000000
4.244000	-30.82774544	16.46086693	1.10244107	0.00599247	-0.00210927	0.03528894	0.00000000	0.00000000	0.00000000	0.00000000	0.00000000	0.00000000	-0.00347395	0.70089090	0.00021285	0.00000000	0.00000000	0.00000000
4.248000	-31.35439301	14.86147594	1.64329410	-0.01611418	-0.00221365	0.01819168	0.00000000	0.00000000	0.00000000	0.00000000	0.00000000	0.00000000	0.00172862	-0.34875983	-0.00010591	0.00000000	0.00000000	0.00000000
4.252000	-30.27712822	14.59014606	1.63644063	-0.01533824	-0.00220964	0.01768100	0.00000000	0.00000000	0.00000000	0.00000000	0.00000000	0.00000000	0.00078052	-0.15747494	-0.00004782	0.00000000	0.00000000	0.00000000
4.256000	-28.66393089	14.06933975	1.08804989	-0.03412932	-0.00230225	0.01592546	0.00000000	0.00000000	0.00000000	0.00000000	0.00000000	0.00000000	-0.00008451	0.01705037	0.00000518	0.00000000	0.00000000	0.00000000
4.260000	-28.12986946	14.85573101	1.08490324	0.00744206	-0.00210012	0.02882162	0.00000000	0.00000000	0.00000000	0.00000000	0.00000000	0.00000000	-0.00217861	0.43954715	0.00013348	0.00000000	0.00000000	0.00000000
4.264000	-27.05111122	14.30772877	1.07796502	0.00825238	-0.00209591	0.02819696	0.00000000	0.00000000	0.00000000	0.00000000	0.00000000	0.00000000	-0.00165235	0.33337203	0.00010124	0.00000000	0.00000000	0.00000000
4.268000	0.00000000	0.00000000	0.00000000	0.00000000	0.00000000	0.00000000	0.00000000	0.00000000	0.00000000	0.00000000	0.00000000	0.00000000	0.00000000	0.00000000	0.00000000	0.00000000	0.00000000	0.00000000
4.272000	0.00000000	0.00000000	0.00000000	0.00000000	0.00000000	0.00000000	0.00000000	0.00000000	0.00000000	0.00000000	0.00000000	0.00000000	0.00000000	0.00000000	0.00000000	0.00000000	0.00000000	0.00000000
4.276000	0.00000000	0.00000000	0.00000000	0.00000000	0.00000000	0.00000000	0.00000000	0.00000000	0.00000000	0.00000000	0.00000000	0.00000000	0.00000000	0.00000000	0.00000000	0.00000000	0.00000000	0.00000000
4.280000	0.00000000	0.00000000	0.00000000	0.00000000	0.00000000	0.00000000	0.00000000	0.00000000	0.00000000	0.00000000	0.00000000	0.00000000	0.00000000	0.00000000	0.00000000	0.00000000	0.00000000	0.00000000
4.284000	0.00000000	0.00000000	0.00000000	0.00000000	0.00000000	0.00000000	0.00000000	0.00000000	0.00000000	0.00000000	0.00000000	0.00000000	0.00000000	0.00000000	0.00000000	0.00000000	0.00000000	0.00000000
4.288000	0.00000000	0.00000000	0.00000000	0.00000000	0.00000000	0.00000000	0.00000000	0.00000000	0.00000000	0.00000000	0.00000000	0.00000000	0.00000000	0.00000000	0.00000000	0.00000000	0.00000000	0.00000000
4.292000	0.00000000	0.00000000	0.00000000	0.00000000	0.00000000	0.00000000	0.00000000	0.00000000	0.00000000	0.00000000	0.00000000	0.00000000	0.00000000	0.00000000	0.00000000	0.00000000	0.00000000	0.00000000
4.296000	0.00000000	0.00000000	0.00000000	0.00000000	0.00000000	0.00000000	0.00000000	0.00000000	0.00000000	0.00000000	0.00000000	0.00000000	0.00000000	0.00000000	0.00000000	0.00000000	0.00000000	0.00000000
4.300000	0.00000000	0.00000000	0.00000000	0.00000000	0.00000000	0.00000000	0.00000000	0.00000000	0.00000000	0.00000000	0.00000000	0.00000000	0.00000000	0.00000000	0.00000000	0.00000000	0.00000000	0.00000000
4.304000	0.00000000	0.00000000	0.00000000	0.00000000	0.00000000	0.00000000	0.00000000	0.00000000	0.00000000	0.00000000	0.00000000	0.00000000	0.00000000	0.00000000	0.00000000	0.00000000	0.00000000	0.00000000
4.308000	0.00000000	0.00000000	0.00000000	0.00000000	0.00000000	0.00000000	0.00000000	0.00000000	0.00000000	0.00000000	0.00000000	0.00000000	0.00000000	0.00000000	0.00000000	0.00000000	0.00000000	0.00000000
4.312000	0.00000000	0.00000000	0.00000000	0.00000000	0.00000000	0.00000000	0.00000000	0.00000000	0.00000000	0.00000000	0.00000000	0.00000000	0.00000000	0.00000000	0.00000000	0.00000000	0.00000000	0.00000000
4.316000	0.00000000	0.00000000	0.00000000	0.00000000	0.00000000	0.00000000	0.00000000	0.00000000	0.00000000	0.00000000	0.00000000	0.00000000	0.00000000	0.00000000	0.00000000	0.00000000	0.00000000	0.00000000
4.320000	0.00000000	0.00000000	0.00000000	0.00000000	0.00000000	0.00000000	0.00000000	0.00000000	0.00000000	0.00000000	0.00000000	0.00000000	0.00000000	0.00000000	0.00000000	0.00000000	0.00000000	0.00000000
4.324000	0.00000000	0.00000000	0.00000000	0.00000000	0.00000000	0.00000000	0.00000000	0.00000000	0.00000000	0.00000000	0.00000000	0.00000000	0.00000000	0.00000000	0.00000000	0.00000000	0.00000000	0.00000000
4.328000	-21.82692719	43.68888855	-0.56082958	0.15212640	-0.00145667	0.27142677	0.00000000	0.00000000	0.00000000	0.00000000	0.00000000	0.00000000	-0.01650324	3.32962942	0.00101116	0.00000000	0.00000000	0.00000000
4.332000	-53.15722275	170.95285034	-5.70909262	0.19842386	-0.00123281	0.28992608	0.00000000	0.00000000	0.00000000	0.00000000	0.00000000	0.00000000	-0.02492631	5.02903461	0.00152724	0.00000000	0.00000000	0.00000000
4.336000	-57.98843384	270.50668335	-11.03179455	0.19957539	-0.00121990	0.26619092	0.00000000	0.00000000	0.00000000	0.00000000	0.00000000	0.00000000	-0.02706432	5.46039152	0.00165823	0.00000000	0.00000000	0.00000000
4.340000	-54.77216721	309.72894287	18.01135063	0.20684597	-0.00118007	0.25370997	0.00000000	0.00000000	0.00000000	0.00000000	0.00000000	0.00000000	-0.00647875	1.30712616	0.00039695	0.00000000	0.00000000	0.00000000
4.344000	-69.82780457	306.02239990	16.49092293	0.19830564	-0.00122352	0.25739086	0.00000000	0.00000000	0.00000000	0.00000000	0.00000000	0.00000000	-0.00240366	0.48495236	0.00014727	0.00000000	0.00000000	0.00000000
4.348000	-74.72201538	311.11618042	12.21907043	0.18720192	-0.00128064	0.26424378	0.00000000	0.00000000	0.00000000	0.00000000	0.00000000	0.00000000	-0.01301880	2.62662125	0.00079766	0.00000000	0.00000000	0.00000000
4.352000	-79.25075531	358.49911499	13.87452888	0.20262051	-0.00120417	0.26410189	0.00000000	0.00000000	0.00000000	0.00000000	0.00000000	0.00000000	-0.01680658	3.39083052	0.00102974	0.00000000	0.00000000	0.00000000
4.356000	-80.48133087	390.38446045	14.42905807	0.20180774	-0.00120722	0.26088265	0.00000000	0.00000000	0.00000000	0.00000000	0.00000000	0.00000000	-0.01183670	2.38812709	0.00072524	0.00000000	0.00000000	0.00000000
4.360000	-81.61673737	401.67840576	13.90118408	0.20289966	-0.00120184	0.26097810	0.00000000	0.00000000	0.00000000	0.00000000	0.00000000	0.00000000	-0.00599675	1.20988083	0.00036742	0.00000000	0.00000000	0.00000000
4.364000	-81.05735016	399.40457153	15.51109028	0.20600373	-0.00118622	0.26021171	0.00000000	0.00000000	0.00000000	0.00000000	0.00000000	0.00000000	-0.00216053	0.43589970	0.00013238	0.00000000	0.00000000	0.00000000
4.368000	-74.06575775	399.20031738	14.92905998	0.20336476	-0.00120009	0.26281670	0.00000000	0.00000000	0.00000000	0.00000000	0.00000000	0.00000000	-0.00736528	1.48598921	0.00045127	0.00000000	0.00000000	0.00000000
4.372000	-66.04227448	399.68386841	7.88454056	0.20294797	-0.00120268	0.26452807	0.00000000	0.00000000	0.00000000	0.00000000	0.00000000	0.00000000	-0.01002282	2.02216482	0.00061410	0.00000000	0.00000000	0.00000000
4.376000	-65.51383209	400.26330566	6.80530214	0.20659339	-0.00118490	0.26548523	0.00000000	0.00000000	0.00000000	0.00000000	0.00000000	0.00000000	-0.00490967	0.99055582	0.00030082	0.00000000	0.00000000	0.00000000
4.380000	-67.73571014	407.51541138	1.44114971	0.20919570	-0.00117174	0.26463592	0.00000000	0.00000000	0.00000000	0.00000000	0.00000000	0.00000000	-0.00132061	0.26644170	0.00008091	0.00000000	0.00000000	0.00000000
4.384000	-69.41886139	418.07730103	-1.23549640	0.21196881	-0.00115762	0.26338965	0.00000000	0.00000000	0.00000000	0.00000000	0.00000000	0.00000000	0.00146635	-0.29584488	-0.00008984	0.00000000	0.00000000	0.00000000
4.388000	-74.83387756	420.34411621	-4.96686602	0.21303955	-0.00115269	0.26463458	0.00000000	0.00000000	0.00000000	0.00000000	0.00000000	0.00000000	0.00292977	-0.59109920	-0.00017951	0.00000000	0.00000000	0.00000000
4.392000	-78.06278992	412.35723877	-11.40478230	0.21438006	-0.00114713	0.26820743	0.00000000	0.00000000	0.00000000	0.00000000	0.00000000	0.00000000	0.00214485	-0.43273696	-0.00013142	0.00000000	0.00000000	0.00000000
4.396000	-82.37589264	410.79428101	-14.06805897	0.21656382	-0.00113692	0.27021921	0.00000000	0.00000000	0.00000000	0.00000000	0.00000000	0.00000000	0.00386147	-0.77907419	-0.00023659	0.00000000	0.00000000	0.00000000
4.400000	-82.97370911	425.60278320	-11.90812016	0.22027487	-0.00111805	0.26866186	0.00000000	0.00000000	0.00000000	0.00000000	0.00000000	0.00000000	0.00635247	-1.28164876	-0.00038922	0.00000000	0.00000000	0.00000000
4.404000	-81.99413300	447.77114868	-9.75634575	0.22316128	-0.00110328	0.26713914	0.00000000	0.00000000	0.00000000	0.00000000	0.00000000	0.00000000	0.00875650	-1.76667702	-0.00053651	0.00000000	0.00000000	0.00000000
4.408000	-83.69039154	463.02648926	-10.81758499	0.22433582	-0.00109773	0.26801875	0.00000000	0.00000000	0.00000000	0.00000000	0.00000000	0.00000000	0.00944926	-1.90644586	-0.00057896	0.00000000	0.00000000	0.00000000
4.412000	-88.05500031	474.56243896	-11.32494831	0.22683644	-0.00108597	0.27011654	0.00000000	0.00000000	0.00000000	0.00000000	0.00000000	0.00000000	0.00880107	-1.77566898	-0.00053924	0.00000000	0.00000000	0.00000000
4.416000	-91.36458588	490.33941650	-11.83779621	0.22869188	-0.00107709	0.27116823	0.00000000	0.00000000	0.00000000	0.00000000	0.00000000	0.00000000	0.00884325	-1.78417945	-0.00054183	0.00000000	0.00000000	0.00000000
4.420000	-92.02573395	517.24212646	-10.21225834	0.23085296	-0.00106606	0.27011332	0.00000000	0.00000000	0.00000000	0.00000000	0.00000000	0.00000000	0.00917903	-1.85192430	-0.00056240	0.00000000	0.00000000	0.00000000
4.424000	-94.82457733	543.29095459	-6.95945549	0.23380226	-0.00105138	0.26989886	0.00000000	0.00000000	0.00000000	0.00000000	0.00000000	0.00000000	0.00686131	-1.38431096	-0.00042039	0.00000000	0.00000000	0.00000000
4.428000	-94.36735535	560.94598389	-5.88157320	0.23545274	-0.00104336	0.27043763	0.00000000	0.00000000	0.00000000	0.00000000	0.00000000	0.00000000	0.00672397	-1.35660267	-0.00041198	0.00000000	0.00000000	0.00000000
4.432000	-93.90658569	575.17864990	-6.95654345	0.23701617	-0.00103598	0.27164522	0.00000000	0.00000000	0.00000000	0.00000000	0.00000000	0.00000000	0.00792713	-1.59934700	-0.00048570	0.00000000	0.00000000	0.00000000
4.436000	-92.92291260	591.76641846	-8.57225990	0.23863822	-0.00102804	0.27198011	0.00000000	0.00000000	0.00000000	0.00000000	0.00000000	0.00000000	0.00701814	-1.41595244	-0.00043000	0.00000000	0.00000000	0.00000000
